<?xml version="1.0" encoding="utf-8"?>
<!-- Svg Vector Icons : http://www.onlinewebfonts.com/icon -->
<!DOCTYPE svg PUBLIC "-//W3C//DTD SVG 1.1//EN" "http://www.w3.org/Graphics/SVG/1.1/DTD/svg11.dtd">
<svg version="1.1" xmlns="http://www.w3.org/2000/svg" xmlns:xlink="http://www.w3.org/1999/xlink" x="0px" y="0px" viewBox="0 0 1000 1000" enable-background="new 0 0 1000 1000" xml:space="preserve">
<metadata> Svg Vector Icons : http://www.onlinewebfonts.com/icon </metadata>
<g><g transform="translate(0.000000,512.000000) scale(0.100000,-0.100000)"><path fill="rgb(88, 164, 176)" d="M4739.8,4994.8c-703.6-149.5-1129.3-893.5-901.1-1574.1c28.8-82.4,80.5-197.5,115-255c34.5-57.5,57.5-113.1,49.9-124.6c-7.7-9.6-650-914.6-1428.4-2007.4l-1413-1988.2l-195.6,69C796-826.1,755.7-818.4,652.2-828c-214.7-21.1-383.5-132.3-487-324c-57.5-107.4-63.3-138-65.2-274.2c0-126.5,9.6-172.5,51.8-262.7c97.8-210.9,218.6-289.5,696-464c970.1-352.8,2124.4-617.4,3134.8-720.9c111.2-11.5,245.4-24.9,301-30.7l99.7-9.6l5.8-703.7l5.8-703.6l49.9-105.4c70.9-153.4,138-220.5,281.8-291.4l128.5-63.3h757.3h757.3l107.4,49.8c136.1,63.3,239.7,166.8,302.9,302.9c69,147.6,69,371.9,3.8,500.4c-74.8,143.8-147.6,220.5-274.2,289.5l-120.8,65.2l-387.3,5.7l-389.2,7.7v322.1v324l101.6,9.6c53.7,5.7,224.3,24.9,377.7,40.3C7146-2751,8348.2-2459.6,9352.8-2070.4c251.2,97.8,362.4,170.6,439.1,285.7c262.7,396.9,21.1,912.6-448.7,956.7c-109.3,9.6-145.7,1.9-385.4-80.5c-210.9-72.9-268.4-84.3-279.9-65.2c-7.7,15.3-544.5,816.8-1192.6,1781.2L6308.2,2561.8l644.2,9.6l644.2,9.6l107.4,49.9c136.1,63.3,239.7,166.8,302.9,302.9c69,147.6,69,372,3.8,500.4c-74.8,143.8-147.6,220.5-274.2,289.5l-120.8,65.2l-694.1,5.7l-696,5.8v47.9c0,26.8-13.4,115-30.7,195.6C6058.9,4709.1,5407.1,5134.8,4739.8,4994.8z M4385.1-114.8v-1574.1l-118.9,13.4c-304.8,30.7-623.1,74.8-878.1,117c-312.5,53.7-960.6,195.5-981.7,216.7c-11.5,9.6,1955.6,2799.2,1974.8,2801.1C4383.2,1459.3,4385.1,751.9,4385.1-114.8z M6164.4,583.1c295.3-441,709.4-1060.3,922.2-1376.6c348.9-519.6,383.5-575.2,347-588.6c-63.3-23-644.2-143.8-891.5-186c-220.5-36.4-557.9-80.5-809.1-107.4l-120.8-11.5v1535.7c0,843.6,3.8,1533.8,7.7,1533.8C5623.7,1382.6,5869.1,1022.2,6164.4,583.1z"/></g></g>
</svg>